<?xml version="1.0" standalone="no"?><!DOCTYPE svg PUBLIC "-//W3C//DTD SVG 1.1//EN" "http://www.w3.org/Graphics/SVG/1.1/DTD/svg11.dtd"><svg t="1743413573491" class="icon" viewBox="0 0 1024 1024" version="1.1" xmlns="http://www.w3.org/2000/svg" p-id="1027" xmlns:xlink="http://www.w3.org/1999/xlink" width="200" height="200"><path d="M551.9872 515.4816m-179.0976 0a179.0976 179.0976 0 1 0 358.1952 0 179.0976 179.0976 0 1 0-358.1952 0Z" fill="#FFBE0A" p-id="1028"></path><path d="M517.12 539.7504a136.6016 136.6016 0 1 0-136.7552-136.6016A136.704 136.704 0 0 0 517.12 539.7504z m0-201.472a64.9216 64.9216 0 1 1-65.0752 64.8704A64.9728 64.9728 0 0 1 517.12 338.2784z" fill="#34332E" p-id="1029"></path><path d="M916.48 762.0096l-68.352-96.768a97.28 97.28 0 0 0-77.9264-40.96c36.5056-58.5728 61.184-127.232 61.184-205.9264a314.624 314.624 0 0 0-629.248 0c0 78.7968 26.0608 147.8144 62.464 205.8752H256a96.9216 96.9216 0 0 0-80.9472 43.4176l-64.1536 96.7168a97.28 97.28 0 0 0 80.9984 150.8352h645.376A97.28 97.28 0 0 0 916.48 762.0096zM517.12 175.3088a243.2512 243.2512 0 0 1 242.944 242.944c0 146.3808-108.032 254.5152-198.656 319.3856a77.312 77.312 0 0 1-90.8288-1.1776c-73.3184-53.6064-196.4032-166.1952-196.4032-318.208A243.2 243.2 0 0 1 517.12 175.3088z m343.04 654.4896a24.8832 24.8832 0 0 1-22.6304 13.7216h-645.12a25.6 25.6 0 0 1-21.76-39.68l64.2048-96.8192A25.6 25.6 0 0 1 256 695.808h62.8224a700.16 700.16 0 0 0 109.2608 98.5088 150.4768 150.4768 0 0 0 88.8832 29.184 147.0976 147.0976 0 0 0 85.9648-27.5968 701.0816 701.0816 0 0 0 113.2032-100.1472h52.7872a25.6 25.6 0 0 1 20.7872 10.752l68.352 96.8192a24.9856 24.9856 0 0 1 2.0992 26.4704z" fill="#34332E" p-id="1030"></path></svg>