<svg
  width="41"
  height="32"
  viewBox="0 0 41 32"
  fill="none"
  xmlns="http://www.w3.org/2000/svg"
>
  <g clip-path="url(#clip0_119_41)">
    <path
      d="M40.1922 31.5661V31.6484H40.2686C40.283 31.6486 40.2971 31.645 40.3096 31.6379C40.3146 31.6343 40.3186 31.6296 40.3213 31.6241C40.324 31.6186 40.3253 31.6125 40.325 31.6064C40.3253 31.6004 40.324 31.5944 40.3213 31.5891C40.3186 31.5837 40.3146 31.5791 40.3096 31.5758C40.2973 31.5683 40.283 31.5647 40.2686 31.5653H40.1922V31.5661ZM40.2694 31.5079C40.3022 31.5059 40.3347 31.5153 40.3613 31.5346C40.372 31.5434 40.3804 31.5545 40.386 31.5672C40.3916 31.5798 40.3942 31.5936 40.3935 31.6074C40.394 31.6193 40.3919 31.6312 40.3875 31.6422C40.383 31.6532 40.3762 31.6632 40.3676 31.6714C40.3471 31.6893 40.3214 31.7 40.2943 31.702L40.3968 31.8193H40.3178L40.2235 31.7029H40.193V31.8193H40.127V31.5081H40.2705L40.2694 31.5079ZM40.2489 31.9266C40.2836 31.9269 40.3179 31.9199 40.3496 31.906C40.3802 31.8928 40.408 31.8739 40.4316 31.8503C40.4552 31.8267 40.4741 31.7988 40.4872 31.768C40.5141 31.7029 40.5141 31.6296 40.4872 31.5644C40.4739 31.5338 40.4551 31.5059 40.4316 31.4822C40.408 31.4586 40.3802 31.4397 40.3496 31.4265C40.3177 31.4133 40.2834 31.4068 40.2489 31.4071C40.2138 31.4068 40.179 31.4134 40.1464 31.4265C40.1152 31.4394 40.0867 31.4583 40.0626 31.4822C40.0263 31.5195 40.0018 31.5667 39.9921 31.6179C39.9823 31.6691 39.9878 31.722 40.0079 31.7701C40.0204 31.801 40.039 31.829 40.0626 31.8524C40.0867 31.8762 40.1152 31.8951 40.1464 31.9081C40.1788 31.922 40.2137 31.929 40.2489 31.9287M40.2489 31.3323C40.339 31.3322 40.4256 31.3676 40.4898 31.431C40.5208 31.4614 40.5455 31.4977 40.5624 31.5377C40.5799 31.5788 40.5889 31.6231 40.5889 31.6678C40.5889 31.7125 40.5799 31.7568 40.5624 31.7979C40.5451 31.8377 40.5205 31.8739 40.4898 31.9046C40.4584 31.9349 40.4218 31.9592 40.3818 31.9766C40.3398 31.9945 40.2946 32.0036 40.2489 32.0033C40.2028 32.0036 40.157 31.9946 40.1145 31.9766C40.074 31.9596 40.0371 31.9352 40.0056 31.9046C39.975 31.8728 39.9507 31.8354 39.9341 31.7944C39.9165 31.7533 39.9075 31.709 39.9075 31.6643C39.9075 31.6196 39.9165 31.5753 39.9341 31.5342C39.951 31.4942 39.9757 31.4579 40.0066 31.4275C40.0377 31.3963 40.0747 31.3718 40.1155 31.3555C40.158 31.3375 40.2038 31.3284 40.25 31.3288M8.85935 30.1306C8.85935 29.5373 9.2468 29.0499 9.88004 29.0499C10.4852 29.0499 10.8936 29.5163 10.8936 30.1306C10.8936 30.7449 10.4852 31.2113 9.88004 31.2113C9.2468 31.2113 8.85935 30.7239 8.85935 30.1306ZM11.5834 30.1306V28.4422H10.8517V28.8535C10.6197 28.5495 10.2677 28.3589 9.78902 28.3589C8.84602 28.3589 8.10597 29.1009 8.10597 30.1314C8.10597 31.162 8.84561 31.904 9.78902 31.904C10.2675 31.904 10.6197 31.7131 10.8517 31.4094V31.8193H11.5826V30.1306H11.5834ZM36.3047 30.1306C36.3047 29.5373 36.6922 29.0499 37.3256 29.0499C37.9314 29.0499 38.3392 29.5163 38.3392 30.1306C38.3392 30.7449 37.9314 31.2113 37.3256 31.2113C36.6924 31.2113 36.3047 30.7239 36.3047 30.1306ZM39.0296 30.1306V27.0869H38.2973V28.8535C38.0653 28.5495 37.7133 28.3589 37.2346 28.3589C36.2916 28.3589 35.5516 29.1009 35.5516 30.1314C35.5516 31.162 36.2912 31.904 37.2346 31.904C37.7133 31.904 38.0653 31.7131 38.2973 31.4094V31.8193H39.0296V30.1306ZM20.6641 29.0151C21.1356 29.0151 21.4384 29.3117 21.5156 29.8339H19.7699C19.848 29.3465 20.143 29.0151 20.6643 29.0151M20.6788 28.357C19.6928 28.357 19.003 29.0768 19.003 30.1296C19.003 31.2029 19.7205 31.9021 20.7278 31.9021C21.2346 31.9021 21.6987 31.7752 22.1071 31.4291L21.7485 30.8852C21.4664 31.1114 21.1073 31.2383 20.7696 31.2383C20.2981 31.2383 19.8689 31.0193 19.7633 30.4115H22.2616C22.2688 30.3202 22.2762 30.2281 22.2762 30.1294C22.2688 29.077 21.6202 28.3568 20.6784 28.3568M29.5119 30.1294C29.5119 29.5361 29.8993 29.0487 30.5326 29.0487C31.1377 29.0487 31.5461 29.5151 31.5461 30.1294C31.5461 30.7437 31.1377 31.2101 30.5326 31.2101C29.8993 31.2101 29.5117 30.7227 29.5117 30.1294M32.2357 30.1294V28.4422H31.5045V28.8535C31.2716 28.5495 30.9204 28.3589 30.4417 28.3589C29.4987 28.3589 28.7587 29.1009 28.7587 30.1314C28.7587 31.162 29.4983 31.904 30.4417 31.904C30.9204 31.904 31.2716 31.7131 31.5045 31.4094V31.8193H32.2359V30.1306L32.2357 30.1294ZM25.3801 30.1294C25.3801 31.1533 26.0906 31.9019 27.1751 31.9019C27.6818 31.9019 28.0195 31.7888 28.3846 31.4995L28.0332 30.9061C27.7585 31.1042 27.4701 31.2101 27.1517 31.2101C26.5677 31.2029 26.1382 30.7793 26.1382 30.1294C26.1382 29.4795 26.5677 29.0561 27.1517 29.0487C27.4692 29.0487 27.7577 29.1546 28.0332 29.3526L28.3846 28.7593C28.0189 28.4699 27.6812 28.3568 27.1751 28.3568C26.0906 28.3568 25.3801 29.1052 25.3801 30.1294ZM34.8121 28.3568C34.39 28.3568 34.1151 28.5549 33.9251 28.8514V28.4422H33.2V31.8174H33.9325V29.9254C33.9325 29.3668 34.1717 29.0565 34.65 29.0565C34.8066 29.0542 34.9621 29.0831 35.1075 29.1414L35.333 28.4496C35.1711 28.3856 34.9599 28.3575 34.8117 28.3575M15.2006 28.7106C14.8486 28.4778 14.3636 28.3575 13.8285 28.3575C12.9762 28.3575 12.4274 28.7673 12.4274 29.438C12.4274 29.9883 12.8359 30.3278 13.5883 30.4338L13.9339 30.4831C14.3351 30.5397 14.5245 30.6456 14.5245 30.8362C14.5245 31.0972 14.258 31.2461 13.7576 31.2461C13.2509 31.2461 12.8851 31.0836 12.6385 30.893L12.2947 31.4653C12.6959 31.7619 13.2027 31.9034 13.7515 31.9034C14.7232 31.9034 15.2863 31.4443 15.2863 30.8017C15.2863 30.2084 14.8431 29.898 14.1108 29.7921L13.766 29.7419C13.4493 29.7008 13.1955 29.6368 13.1955 29.4106C13.1955 29.1638 13.4347 29.0153 13.8361 29.0153C14.2656 29.0153 14.6813 29.1778 14.8851 29.3047L15.2018 28.7114L15.2006 28.7106ZM24.6411 28.3581C24.219 28.3581 23.9441 28.5561 23.7549 28.8527V28.4422H23.0298V31.8174H23.7614V29.9254C23.7614 29.3668 24.0006 29.0565 24.4789 29.0565C24.6355 29.0542 24.791 29.0831 24.9365 29.1414L25.162 28.4496C25 28.3856 24.7889 28.3575 24.6407 28.3575M18.3976 28.4422H17.2012V27.4182H16.4616V28.4422H15.7791V29.113H16.4616V30.6528C16.4616 31.4359 16.7646 31.9023 17.6301 31.9023C17.9476 31.9023 18.3133 31.8036 18.5454 31.6414L18.334 31.0129C18.1157 31.1398 17.8765 31.2037 17.6862 31.2037C17.3205 31.2037 17.2012 30.9775 17.2012 30.6388V29.1137H18.3976V28.4422ZM7.45899 31.8182V29.7C7.45899 28.9022 6.95223 28.3655 6.13531 28.3583C5.70583 28.3511 5.26283 28.4852 4.95266 28.9588C4.7206 28.5845 4.35488 28.3583 3.84074 28.3583C3.48138 28.3583 3.13021 28.4642 2.85531 28.8595V28.4422H2.12305V31.8174H2.86105V29.9459C2.86105 29.36 3.18495 29.0487 3.68515 29.0487C4.171 29.0487 4.41679 29.3664 4.41679 29.9385V31.817H5.15643V29.9455C5.15643 29.3596 5.49407 29.0483 5.97971 29.0483C6.4793 29.0483 6.71771 29.366 6.71771 29.9381V31.8166L7.45899 31.8182Z"
      fill="#231F20"
    />
    <path
      d="M40.6093 20.5906V20.097H40.4812L40.333 20.4358L40.1856 20.097H40.0571V20.5906H40.1481V20.2188L40.2867 20.5396H40.381L40.5196 20.218V20.5906H40.6098H40.6093ZM39.7965 20.5906V20.1816H39.9605V20.0983H39.5415V20.1816H39.7055V20.5906H39.7957H39.7965Z"
      fill="#F79410"
    />
    <path
      d="M26.0466 22.7075H14.959V2.71777H26.0468L26.0466 22.7075Z"
      fill="#FF5F00"
    />
    <path
      d="M15.662 12.7129C15.662 8.65799 17.5546 5.04586 20.5016 2.71804C18.2709 0.953408 15.5117 -0.00431923 12.6708 -0.000108243C5.67276 -0.000108243 0 5.69161 0 12.7129C0 19.7342 5.67276 25.4259 12.6708 25.4259C15.5118 25.4302 18.271 24.4724 20.5018 22.7078C17.555 20.3804 15.662 16.768 15.662 12.7129Z"
      fill="#EB001B"
    />
    <path
      d="M41.0053 12.713C41.0053 19.7343 35.3326 25.426 28.3345 25.426C25.4932 25.4302 22.7337 24.4725 20.5024 22.7079C23.4503 20.3801 25.3429 16.7681 25.3429 12.713C25.3429 8.65791 23.4503 5.04598 20.5024 2.71816C22.7337 0.953583 25.4931 -0.00412335 28.3343 1.33449e-05C35.3323 1.33449e-05 41.0051 5.69174 41.0051 12.713"
      fill="#F79E1B"
    />
  </g>
  <defs>
    <clipPath id="clip0_119_41">
      <rect width="41" height="32" fill="white" />
    </clipPath>
  </defs>
</svg>