<svg
  width="40"
  height="40"
  viewBox="0 0 40 40"
  fill="none"
  xmlns="http://www.w3.org/2000/svg"
>
  <path
    d="M17.7619 25.2789H15.015L16.7318 14.7283H19.479L17.7619 25.2789ZM12.7042 14.7283L10.0855 21.9851L9.77557 20.4224L9.77586 20.423L8.85158 15.6783C8.85158 15.6783 8.73982 14.7283 7.54855 14.7283H3.21926L3.16846 14.907C3.16846 14.907 4.49236 15.1824 6.04177 16.1129L8.42824 25.2792H11.2903L15.6605 14.7283H12.7042ZM34.3098 25.2789H36.832L34.6329 14.728H32.4248C31.4051 14.728 31.1568 15.5143 31.1568 15.5143L27.06 25.2789H29.9235L30.4961 23.7118H33.988L34.3098 25.2789ZM31.2872 21.5468L32.7304 17.5985L33.5424 21.5468H31.2872ZM27.2748 17.2655L27.6668 14.9998C27.6668 14.9998 26.4572 14.5398 25.1962 14.5398C23.8331 14.5398 20.596 15.1356 20.596 18.0326C20.596 20.7583 24.3953 20.7922 24.3953 22.2239C24.3953 23.6556 20.9874 23.399 19.8628 22.4962L19.4544 24.8652C19.4544 24.8652 20.6809 25.461 22.5549 25.461C24.4294 25.461 27.2573 24.4904 27.2573 21.8488C27.2573 19.1056 23.4239 18.8502 23.4239 17.6575C23.4242 16.4646 26.0993 16.6178 27.2748 17.2655Z"
    fill="#2566AF"
  />
  <path
    d="M9.77586 20.4227L8.85158 15.678C8.85158 15.678 8.73982 14.728 7.54855 14.728H3.21926L3.16846 14.9067C3.16846 14.9067 5.24929 15.3379 7.24516 16.9536C9.15356 18.498 9.77586 20.4227 9.77586 20.4227Z"
    fill="#E6A540"
  />
</svg>